<?xml version="1.0" encoding="UTF-8"?>
<svg id="Capa_1" data-name="Capa 1" xmlns="http://www.w3.org/2000/svg" viewBox="0 0 949.45 1024">
  <defs>
    <style>
      .cls-1 {
        fill: #ff7748;
        stroke-width: 0px;
      }
    </style>
  </defs>
  <path class="cls-1" d="m649.92,165.2c59.9,27.8,111.8,71.8,146.6,128,7.5,12.1,12.2,22.9,14.2,32.6,5.5,26.6-2.9,59.4-29.1,70.8-7.4,3.2-21,5.1-40.8,5.8-32.1,1.1-64.4,1.3-96.7.7-1.6,0-3.1-.9-3.9-2.3-21.5-36.8-54.2-67.5-94.2-82.7-82.4-31.2-174.5-1.2-221.3,73.5-16.6,26.5-24.1,54.4-22.1,85.1.3,3.9,2.2,5.8,6,5.8,152.7-.1,305.5-.1,458.2-.2,51.7,0,79.1,47.2,67.1,94.5-6.6,26.2-21.2,43-43.6,50.5-8.4,2.8-23.8,4.2-46.2,4.3-188.9,1-317.5,1.3-385.7,1-119.3-.6-219-82.2-232-203.1-2.6-24.4.4-48.8,9.1-73,9.7-27.1,25.2-55.7,46.6-85.7,21.2-29.7,46.9-54.7,77.2-75.2,16.3-11,33.1-21.5,50.4-31.4,1.1-.7,1.5-2.1.9-3.3-15.2-28-31.2-55.8-48-83.4-3.9-6.5-6-12-6.2-16.5-1.2-25.4,31.1-29.7,42.5-9.2,17.4,31.5,35.3,62.7,53.7,93.6.4.7,1.3,1.1,2.2.9,7.8-2.1,17.6-5.6,22.9-7.1,76.4-21.3,152.1-18.9,227,7.3.8.3,1.4.1,1.9-.7,23.5-39.1,41.2-69.7,52.9-91.6,8.1-15.1,18.9-19.5,32.3-13.1,14.9,7.1,13.3,21.5,6.1,33.4-17.3,28.8-33.6,58.4-48.8,88.5-.4.7-.1,1.7.8,2.2q0-.1,0,0Zm-297.2,134.4c21.8-.5,39-19,38.5-41.2h0c-.5-22.2-18.6-39.8-40.4-39.2h0c-21.8.5-39,19-38.5,41.2h0c.5,22.2,18.6,39.8,40.4,39.2h0Zm294.6-30.6c5.2-21.3-8.1-43-29.7-48.3h0c-21.7-5.3-43.5,7.7-48.7,29s8.1,43,29.7,48.3h0c21.6,5.3,43.5-7.7,48.7-29h0Z"/>
  <path class="cls-1" d="m488.82,816.2c64-.7,121.1-40.4,150.1-96.4,1-1.9,2.6-2.9,4.7-3,35.1-1.2,70.6-1.4,106.5-.7,23.4.5,43.2,5.7,53.8,26,16.6,32.1,5.3,62.4-16.5,88.6-59,71-147.8,117.6-236.7,130.3-30,4.3-62.9,5.1-98.7,2.6-151.1-11-274.6-105.8-329.8-245.3-20.2-51-23.5-99.2-22.2-153.8.4-15.5,3.6-31,5.8-46.5.1-.8.9-1.4,1.7-1.2.5.1.9.4,1.1.9,30.6,72.5,89.9,122,163.7,146,8.9,2.9,17.8,4.7,26.7,5.4,1.3.1,2.5,1.1,2.7,2.4,1.9,8.7,4,17.7,7.7,25.8,25.4,55.1,67.8,100.4,128.1,113.4,17.6,3.9,34.7,5.7,51.3,5.5Z"/>
</svg>