<?xml version="1.0" encoding="UTF-8"?>
<svg id="Capa_1" data-name="Capa 1" xmlns="http://www.w3.org/2000/svg" viewBox="0 0 1024 1024">
  <defs>
    <style>
      .cls-1 {
        fill: #ff7748;
      }

      .cls-1, .cls-2, .cls-3, .cls-4, .cls-5, .cls-6, .cls-7, .cls-8, .cls-9, .cls-10, .cls-11, .cls-12, .cls-13, .cls-14, .cls-15 {
        stroke-width: 0px;
      }

      .cls-2 {
        fill: #3e0094;
      }

      .cls-3 {
        fill: #ff5100;
      }

      .cls-4 {
        fill: #ff8400;
      }

      .cls-5 {
        fill: #ffe258;
      }

      .cls-6 {
        fill: #003;
      }

      .cls-7 {
        fill: #cd0c3e;
      }

      .cls-8 {
        fill: #fff;
      }

      .cls-9 {
        fill: #ff6a00;
      }

      .cls-10 {
        fill: #bb34f6;
      }

      .cls-11 {
        fill: #ff9700;
      }

      .cls-12 {
        fill: #640291;
      }

      .cls-13 {
        fill: #000160;
      }

      .cls-14 {
        fill: #b52098;
      }

      .cls-15 {
        fill: #ffcd31;
      }
    </style>
  </defs>
  <path class="cls-13" d="m942.8,0h27.5c-.1.1-.3.2-.4.2l-27.1-.2Z"/>
  <ellipse class="cls-8" cx="403.69" cy="191.04" rx="4.8" ry="4.4" transform="translate(210.54 593.73) rotate(-89.7)"/>
  <path class="cls-5" d="m816.8,234.4c-1.1,1.5-2.4,1.8-4,.9-8.9-5.3-17.8-11-25.4-18.4-9.2-9-18.2-14.2-33.1-23-7.5-4.5-18.5-11.9-28.8-16.5-5.4-2.4-9.9-6.6-15.5-8.9-5.6-2.3-8.8-3.7-9.8-4.2-8.7-4.5-15.4-7.5-20-9-2.3-.7-7.2-1.3-14.6-1.7-58.6-27.5-120.6-38.6-186.1-33.2-16.7,1.4-31.8,3.4-45,6.2-12.7-2.3-24.3-.7-37.3,1.8-7,1.3-17.8,2.8-32.4,4.5-2.5.3-5.5,1.7-7.5,1.8-5.6.2-11.3-.3-17.1-1.7,12.3-8.1,25.6-14.7,39.7-19.9,55.7-20.2,112.5-26.2,170.9-20,33.8,3.6,69.3,13.9,100.2,24.7,47.1,16.4,91.5,45.7,130.2,80,13.7,12.3,25.6,24.5,35.6,36.6Z"/>
  <path class="cls-4" d="m665.4,153.6c1.2,1.1,2.4,1.9,3.5,2.5,34.1,16.7,60.8,35.1,91.2,59.1,32.5,25.7,60,55.9,82.6,90.7,1.1,1.7,2.2,2.8,3.1,3.3l9,18.3c-4.6.8-8.9.5-12.9-.9-3.1-1.1-5.4-1.7-7.1-1.9-6-.7-11.9-1.4-17.9-2.2-5.5-.8-9.5.1-14.1-4.2-.7-.7-1.8-.7-2.6-.1-3.3,2.5-6.3,2.6-8.9.3,21.5-.1,22.5-29.1,3.3-32-7-1-12.8,3.6-16.3,9.3-7.9-2.3-14.5-6.3-20-12.1-3.4-3.6-5.3-4.3-9.9-5.2-3-.6-5.1-2.3-6.1-5,8.5-.6,15.1-3.4,20-8.3,11.5-11.8,8.7-30.2-5-38.8-22.3-14.1-42,4.6-38.8,28.3-2.1-1.2-4-3.1-5.7-5.6-.3-.4-.7-.7-1.2-.9-11.5-2.9-19.1-10-22.8-21.3-.8-2.6-2.5-4.1-4.9-4.4,1.4-27-19.7-55-47.4-57.7-6.5-.6-13.4-.2-20.9,1.4-18.3,3.9-31.7,15-40,33.4-2.9-.3-5.1-.4-7.9-1.6-3.8-1.5-8.2-1.8-11.7-3.3-15.2-6.2-31-9.7-47.3-10.5-2.3-.1-7.3-.5-14.8-1.2-8.9-.8-17.6-.1-26.4,2.2-3.2.8-5.6.6-8.8.5-1.7,0-3.9.3-6.5.9-6,1.4-9.9-.1-15.7,3-19-29.8-54.1-33.3-81.6-13.7-2.3-2.3-5.3-2.3-7.7-3.1-3.1-1-6.7-2.2-10.7-3.5,4.3-4,8.5-7.3,12.8-10,.6-.3.8-.7.8-1,0-.4-.2-.9-.5-1.5,1.8.3,3,.3,3.5,0,19.8-11.7,40.5-20.3,62.8-25.6,6.1-1.5,12.3-3,18.5-4.5,13.3-2.8,28.3-4.8,45-6.2,65.6-5.5,127.6,5.6,186,33.1Zm-215.9,9.2l3.3,10.9c.5,1.7,2.4,2.7,4.1,2.2,1.3-.4,2.2-1.5,2.3-2.8.3-3.1,1-6.1,1.9-8.9.5-1.6,1.8-2.7,3.4-3.2,3.9-1,11.9-1.5,9.2-8.2-.2-.5-.5-.8-1-1-3.4-1.3-12.2-3.3-12.5-7.4-.3-4-1.1-7.1-2.4-9.3-.6-1-1.2-1.5-1.9-1.5-1.6,0-2.5.8-2.9,2.3l-2.3,11c-.1.6-.6,1-1.2,1.1-4.8.3-8.7,2.3-11.8,5.9-1.2,1.4-1,3.5.4,4.7.2.1.3.3.5.4,3,1.7,6.2,2.6,9.6,2.9.7,0,1.1.3,1.3.9Zm58.3-14.3c0-4.2-3.4-7.6-7.6-7.6h0c-4.2,0-7.6,3.4-7.6,7.6h0c0,4.2,3.4,7.6,7.6,7.6h0c4.2.1,7.6-3.3,7.6-7.6h0Zm39,23.5c7.4-2.3,11.5-10.4,9.1-17.9-2.4-7.6-10.3-11.8-17.7-9.5h0c-7.4,2.3-11.5,10.4-9.1,17.9,2.4,7.6,10.3,11.8,17.7,9.5h0Zm51.2-19.8c-.6-2.8-3.5-4.6-6.6-4h0c-3.1.6-5.1,3.4-4.5,6.2s3.5,4.6,6.6,4h0c3-.6,5.1-3.4,4.5-6.2h0Zm-36.1,32.7c0-.3-.1-.5-.4-.5l-3.6-.5c-.3,0-.5.1-.5.4l-.5,3.8c0,.3.1.5.4.5l3.6.5c.3,0,.5-.1.5-.4l.5-3.8Zm143.6,23.5c3.1,1.3,6.7-.4,8-3.7,1.4-3.3,0-7.1-3.1-8.3h0c-3.1-1.3-6.7.4-8,3.7-1.4,3.3,0,7,3.1,8.3h0Zm82.8,66.6c-.4-2-2.7-3.2-5.2-2.7s-4.1,2.5-3.7,4.5c.4,2,2.7,3.2,5.2,2.7,2.5-.4,4.1-2.5,3.7-4.5Z"/>
  <path class="cls-15" d="m434.5,126.6c-6.2,1.5-12.3,3-18.5,4.5-22.3,5.4-43.1,13.9-62.8,25.6-.6.3-1.7.3-3.5,0-5.1-.2-10.3.8-15.4,3-.1.1-.3.1-.4.1l-14.1-.9c-.2,0-.3-.1-.5-.1l-2.9-1.9c6.8-9.7,14.7-17.6,23.7-23.8,5.8,1.3,11.5,1.9,17.1,1.7,2-.1,5.1-1.5,7.5-1.8,14.6-1.7,25.4-3.2,32.4-4.5,13.1-2.6,24.7-4.2,37.4-1.9Z"/>
  <path class="cls-8" d="m448.2,161.8c-3.4-.2-6.6-1.2-9.6-2.9-1.6-.9-2.2-3-1.3-4.6.1-.2.2-.4.4-.5,3-3.6,7-5.6,11.8-5.9.6,0,1.1-.5,1.2-1.1l2.3-11c.3-1.6,1.3-2.3,2.9-2.3.7,0,1.3.5,1.9,1.5,1.3,2.3,2,5.4,2.4,9.3.4,4.2,9.1,6.1,12.5,7.4.5.2.8.5,1,1,2.7,6.7-5.3,7.2-9.2,8.2-1.6.4-2.9,1.6-3.4,3.2-.9,2.8-1.6,5.8-1.9,8.9-.2,1.8-1.8,3.1-3.6,2.9-1.3-.1-2.4-1.1-2.8-2.3l-3.3-10.9c-.2-.5-.6-.8-1.3-.9Z"/>
  <circle class="cls-13" cx="500.2" cy="148.5" r="7.6"/>
  <ellipse class="cls-6" cx="542.49" cy="158.29" rx="14" ry="14.4" transform="translate(-22.49 170.46) rotate(-17.5)"/>
  <ellipse class="cls-8" cx="592.43" cy="153.28" rx="5.7" ry="5.2" transform="translate(-18.61 120.14) rotate(-11.4)"/>
  <path class="cls-15" d="m665.4,153.6c7.4.4,12.3,1,14.6,1.7,4.6,1.5,11.3,4.5,20,9,1,.5,4.3,1.9,9.8,4.2,5.6,2.3,10.1,6.5,15.5,8.9,10.4,4.6,21.3,12.1,28.8,16.5,14.9,8.8,23.9,14,33.1,23,7.6,7.4,16.5,13.1,25.4,18.4,1.6.9,2.9.7,4-.9,18.9,22.8,35.2,47.7,48.8,74.7-5.6,1.5-12.2,1.4-19.7-.1-1-.4-2-1.5-3.1-3.3-22.6-34.8-50.1-65-82.6-90.7-30.4-24.1-57.2-42.4-91.2-59.1-1-.4-2.1-1.2-3.4-2.3Z"/>
  <path class="cls-11" d="m349.7,156.7c.3.6.5,1.1.5,1.5s-.3.7-.8,1c-4.2,2.7-8.5,6-12.8,10-12.9,11.3-22.6,26.5-29,45.8-4.2-20.4-3.1-41.3,8.9-58.1l2.9,1.9c.1.1.3.1.5.1l14.1.9c.1,0,.3,0,.4-.1,5-2.2,10.1-3.2,15.3-3Z"/>
  <path class="cls-15" d="m279.3,203.6c-5.1.8-10.1,1.6-15.1,2.3-4.2.7-10.9-.6-15.3,3-7.1-1.2-11,.7-11.9,5.8-5.8,2.1-10.6-1.4-16.6-1,18.4-18.4,38.2-35,59.4-49.8.2-.2.5-.2.8-.1.7.2,1,.8.8,1.7-2.7,12.5-3.5,25.2-2.1,38.1Z"/>
  <path class="cls-3" d="m336.6,169.2c4,1.3,7.5,2.5,10.7,3.5,2.4.8,5.4.8,7.7,3.1-21.9,16.3-24.6,47-16,70.5,1.8,4.9,5.1,10.1,7.7,15,.4.7.2,1.6-.5,2l-12.5,8.6c-.9.6-2.1.4-2.7-.4-13.9-18-21.8-36.9-23.5-56.6,6.5-19.1,16.2-34.4,29.1-45.7Z"/>
  <path class="cls-9" d="m575.7,199.5l-9.3,15.4c-.6,1.1-1.9,1.6-3.1,1.4-36.1-7.3-72.3-7.3-108.6,0-1.7.3-3.1-.3-4.1-2.1-4.9-8.4-9.6-16.6-14-24.7,5.7-3.1,9.7-1.6,15.7-3,2.6-.6,4.8-.9,6.5-.9,3.2,0,5.6.3,8.8-.5,8.7-2.3,17.5-3,26.4-2.2,7.5.7,12.5,1.1,14.8,1.2,16.3.8,32.1,4.3,47.3,10.5,3.5,1.4,7.9,1.7,11.7,3.3,2.9,1.2,5,1.3,7.9,1.6Z"/>
  <path class="cls-8" d="m557.9,183.9l3.6.5c.3,0,.4.3.4.5l-.5,3.8c0,.3-.3.4-.5.4l-3.6-.5c-.3,0-.4-.3-.4-.5l.5-3.8c0-.3.3-.5.5-.4Z"/>
  <ellipse class="cls-2" cx="707.96" cy="202.33" rx="6.5" ry="6" transform="translate(251.09 779.74) rotate(-67.6)"/>
  <path class="cls-11" d="m279.3,203.6c.9,29.9,14.8,60.1,31.8,84.2.6.8.5,1.9-.2,2.6-15.6,15.9-29.8,32.6-42.7,50.2-4.5,1.4-8.5,3.8-12.2,7.1-8,7.2-21.3,7.1-31.3,7.5-4.1.2-7.8-.1-10.9-.8-23.1-5.2-37.7-18.9-43.8-41.3-.3-1.1-1.4-1.9-2.5-1.7-4.6.5-8.7,1-12.2,1.5-1.6.2-2.5-.4-2.6-1.9,14.2-36.1,39.9-70.6,67.8-97.2,6-.4,10.7,3,16.6,1,2.5,13.9,22.5,3.4,11.9-5.8,4.4-3.6,11.1-2.3,15.3-3,4.9-.9,10-1.6,15-2.4Zm-14,39.3c1.6,1.6,4.4,1.3,6.3-.6h0c1.9-1.9,2.1-4.7.4-6.3-1.6-1.6-4.4-1.3-6.3.6h0c-1.8,1.9-2,4.7-.4,6.3Zm-10.5,80.3c9.6-7.5,14.9-17.8,15.9-30.7,1.3-16.4-5.6-27.7-18.3-37.1-3.8-2.8-7.6-4.6-11.3-5.5-17.6-3.9-37,3.6-45.6,19.8-9.2,17.3-7.8,42.1,8.9,54.8,15.8,12.1,35.2,10.7,50.4-1.3Z"/>
  <path class="cls-5" d="m249,208.9c10.7,9.1-9.3,19.7-11.9,5.8.8-5.1,4.8-7.1,11.9-5.8Z"/>
  <path class="cls-1" d="m606.7,284.4c34.3,15.9,63.9,41,83.8,73.2,4.3,6.9,7,13.1,8.1,18.6,3.1,15.2-1.6,34-16.6,40.5-4.2,1.8-12,2.9-23.3,3.3-18.4.6-36.8.7-55.3.4-.9,0-1.8-.5-2.2-1.3-12.3-21-31-38.6-53.8-47.3-47.1-17.8-99.7-.7-126.5,42-9.5,15.1-13.8,31.1-12.6,48.6.1,2.2,1.3,3.3,3.4,3.3,87.3,0,174.6-.1,261.9-.1,29.6,0,45.2,27,38.4,54-3.8,15-12.1,24.6-24.9,28.8-4.8,1.6-13.6,2.4-26.4,2.5-108,.6-181.5.8-220.5.5-68.2-.4-125.2-47-132.6-116.1-1.5-14,.2-27.9,5.2-41.8,5.5-15.5,14.4-31.8,26.7-49,12.1-17,26.8-31.3,44.1-43,9.3-6.3,18.9-12.3,28.8-18,.6-.4.9-1.2.5-1.9-8.7-16-17.8-31.9-27.4-47.7-2.2-3.7-3.4-6.8-3.5-9.5-.7-14.5,17.8-17,24.3-5.3,9.9,18,20.2,35.8,30.7,53.5.3.4.8.6,1.2.5,4.4-1.2,10.1-3.2,13.1-4,43.7-12.2,86.9-10.8,129.8,4.2.5.2.8,0,1.1-.4,13.4-22.4,23.5-39.8,30.3-52.4,4.7-8.6,10.8-11.1,18.5-7.5,8.5,4.1,7.6,12.3,3.5,19.1-9.9,16.5-19.2,33.4-27.9,50.6-.6.9-.4,1.4.1,1.7h0Zm-169.9,76.9c12.5-.3,22.3-10.8,22-23.5h0c-.3-12.7-10.7-22.7-23.1-22.4h0c-12.5.3-22.3,10.8-22,23.5h0c.3,12.6,10.6,22.7,23.1,22.4h0Zm168.4-17.5c3-12.2-4.6-24.6-17-27.6h0c-12.4-3-24.8,4.4-27.8,16.6s4.6,24.6,17,27.6h0c12.3,3,24.8-4.4,27.8-16.6h0Z"/>
  <path class="cls-6" d="m742.5,273.5c-10.9-1.9-18.8-8.2-23.9-18.9-3.3-23.7,16.4-42.4,38.8-28.3,13.8,8.7,16.5,27,5,38.8-4.8,5-11.4,7.8-19.9,8.4Z"/>
  <path class="cls-3" d="m684.1,222.4c2.4.3,4,1.7,4.9,4.4,3.7,11.3,11.3,18.4,22.8,21.3.5.1.9.4,1.2.9,1.7,2.5,3.6,4.4,5.7,5.6,5,10.7,13,17,23.9,18.9,1,2.7,3.1,4.4,6.1,5,4.6.9,6.4,1.6,9.9,5.2,5.5,5.7,12.1,9.7,20,12.1-2.9,11.5,1.4,19.1,13,22.6,2.6,2.3,5.6,2.2,8.9-.3.8-.6,1.9-.6,2.6.1,4.6,4.2,8.6,3.4,14.1,4.2,6,.8,11.9,1.6,17.9,2.2,1.6.2,4,.8,7.1,1.9,4,1.4,8.3,1.7,12.9.9,11,21.9,19,44.7,24,68.2,1.9,9,2.8,17.6,2.7,25.8-.2,11.4-.7,22.1-4.1,33.1-6.2-3.7-13.7-10.4-21.2-8.4,0,.3-.1.2-.4-.2-.1-.1-.1-.3-.1-.5,2.7-8.6,3.8-17.5,3.3-26.6,2.1-8.1,2.9-16.1,2.2-24-.7-10.6-3.6-19.2-8.8-25.8-22.4-28.3-62.9-23.2-82,5.4-.4.6-1.3.8-1.9.4-.2-.1-.3-.3-.4-.5-21.7-42.3-51.6-77.5-89.7-105.6-2.5-1.8-4.9-3.8-7.2-5.9-.4-.3-.4-.7-.2-1.2,6.8-13.2,12.5-23.6,12.8-39.2Zm73.7,68c0-2.6-2.1-4.7-4.7-4.7h0c-2.6,0-4.7,2.1-4.7,4.7h0c0,2.6,2.1,4.7,4.7,4.7h0c2.6,0,4.7-2.1,4.7-4.7h0Z"/>
  <ellipse class="cls-8" cx="268.65" cy="239.38" rx="4.8" ry="4.1" transform="translate(-90.3 264.47) rotate(-45.7)"/>
  <path class="cls-12" d="m254.8,323.2c-15.2,12-34.6,13.4-50.4,1.3-16.7-12.7-18.1-37.6-8.9-54.8,8.6-16.2,27.9-23.7,45.6-19.8,3.8.8,7.6,2.6,11.3,5.5,12.7,9.4,19.6,20.7,18.3,37.1-1,12.9-6.3,23.2-15.9,30.7Zm-17.9-50.4c-7.9-5.4-19.9,0-23.6,8.2-8.1,18.2,14.5,33.2,28.7,20,6-5.6,7.4-15.4,1.6-22-2.5-2.7-4.7-4.8-6.7-6.2Z"/>
  <path class="cls-11" d="m213.3,281.1c3.7-8.2,15.7-13.7,23.6-8.2,2,1.4,4.2,3.5,6.7,6.3,5.8,6.6,4.5,16.3-1.6,22-14.1,13.1-36.8-1.9-28.7-20.1Z"/>
  <ellipse class="cls-8" cx="783.92" cy="275.89" rx="4.6" ry="3.7" transform="translate(-39.47 163.28) rotate(-11.6)"/>
  <circle class="cls-5" cx="753.1" cy="290.4" r="4.7"/>
  <path class="cls-14" d="m791.5,318.4c-11.6-3.6-15.9-11.1-13-22.6,3.5-5.7,9.3-10.4,16.3-9.3,19.2,2.7,18.2,31.8-3.3,31.9Z"/>
  <path class="cls-11" d="m865.6,309.1c16.8,34.3,28.3,70.7,34.4,109.4,1.8,11.4,2.3,22.6,1.5,33.7-.8,3.5-1.6,8.4-2.3,14.7-2.1,18.1-9.5,36-22.1,53.7-3-4.6-6.4-8.1-10.3-10.6-.4-.3-.7-.6-.9-1-.9-1.7-2-3.4-3.2-5-1.8-2.3-1.8-4.5-2.2-7.3,4.7-7.3,8.9-15.1,12.5-23.4,2.8-6.3,4.3-12.6,4.6-18.8,3.4-11,3.9-21.7,4.1-33.1.1-8.1-.8-16.7-2.7-25.8-5-23.5-13-46.3-24-68.2l-9-18.3c7.4,1.5,14,1.5,19.6,0Z"/>
  <path class="cls-3" d="m152.8,310.9c.1,1.5,1,2.1,2.6,1.9,3.5-.5,7.6-1,12.2-1.5,1.2-.1,2.2.6,2.5,1.7,6.1,22.4,20.7,36.2,43.8,41.3,3.1.7,6.7,1,10.9.8,10-.4,23.4-.3,31.3-7.5,3.6-3.3,7.7-5.6,12.2-7.1-10.5,15-17.3,25.8-20.3,32.2-16,34-25.4,68.5-28,103.4-.4,5.1-.6,17.1-.7,35.9l-7.6-6.6c-20.6-24-38-50.8-52.3-80.4-17.7-36.5-26.6-76.4-6.6-114.1Zm8.1,34.9c3.2-.7,5.2-4,4.5-7.4h0c-.7-3.3-4-5.5-7.2-4.8s-5.2,4-4.5,7.4c.7,3.3,3.9,5.5,7.2,4.8Zm33.5,14c-.9-3.9-5-6.2-9.1-5.3h0c-4.2,1-6.8,4.8-5.9,8.7h0c.9,3.9,5,6.2,9.1,5.3h0c4.1-1,6.8-4.9,5.9-8.7h0Zm24.6,35.3c-4.4-3.6-9.4-4.5-13.1-9.6-2.4-3.2-4.6-8.1-6.6-14.5-.2-.5-.5-.9-.9-1.1-3.4-1.8-5.2.7-6,3.8-1.9,6.6-2,10.9-8.9,15.4-3.5,2.3-6.8,4.1-9.8,5.5-1.3.6-1.8,2-1.3,3.3.2.5.6.9,1,1.1,5.3,3.3,12.5,6.7,15.5,12.2,2.1,4,3.9,9.1,5.3,15.4.1.5.5.8.9.9,4.7,1,6.4-1.7,7-6.1,1.4-10.4,6.8-17.3,16.2-20.9,1.7-.6,2.5-2.5,1.9-4.2-.4-.4-.7-.8-1.2-1.2Zm-53.2-23.1c-.3-1.5-2-2.3-3.7-1.9h0c-1.7.4-2.8,1.9-2.5,3.3h0c.3,1.5,2,2.3,3.7,1.9,1.8-.4,2.9-1.9,2.5-3.3Z"/>
  <ellipse class="cls-15" cx="159.49" cy="339.71" rx="6" ry="6.2" transform="translate(-69.73 42.56) rotate(-12.5)"/>
  <ellipse class="cls-10" cx="186.93" cy="361.5" rx="7.7" ry="7.2" transform="translate(-76 50.87) rotate(-12.9)"/>
  <path class="cls-8" d="m205.9,385.5c3.7,5.1,8.7,6,13.1,9.6,1.4,1.1,1.6,3.2.5,4.6-.4.4-.8.8-1.4,1-9.4,3.5-14.9,10.5-16.2,20.9-.6,4.4-2.3,7-7,6.1-.5-.1-.8-.4-.9-.9-1.4-6.3-3.2-11.5-5.3-15.4-3-5.5-10.1-9-15.5-12.2-1.2-.7-1.6-2.3-.8-3.5.3-.4.7-.8,1.1-1,3.1-1.4,6.4-3.2,9.8-5.5,6.9-4.5,7-8.8,8.9-15.4.9-3.1,2.6-5.5,6-3.8.5.2.8.6.9,1.1,2.2,6.4,4.4,11.2,6.8,14.4Z"/>
  <ellipse class="cls-5" cx="162.78" cy="372.68" rx="3.1" ry="2.7" transform="translate(-78.51 45.32) rotate(-12.8)"/>
  <path class="cls-9" d="m839.9,405.9c-2.6,9.2-8.9,14.9-19,17-18.2.1-27.4-8.7-27.6-26.5,8.5-29.2,49.8-20,46.6,9.5Z"/>
  <path class="cls-8" d="m258.6,403.9c3.1-4.6,2.5-15.3,8.3-17.1,1.8-.6,3.7.4,4.2,2.2v.1c1.2,4.4,2.1,10.1,5,14,3.8,5,16.1,6.3,16.6,11.8.2,1.7-.7,3-2.7,3.7-8.9,3.4-15.2,4.5-17,15.5-.7,3.9-.1,9-5.4,9.8-2.1.3-4-1.1-4.4-3.1-1.6-7.8-1.6-14.9-10.3-18.8-3.4-1.5-6.4-2.9-9.2-4.2-1.5-.7-2.2-2.5-1.4-4.1.3-.6.8-1.1,1.4-1.4,4.5-2.3,12.4-4.8,14.9-8.4Z"/>
  <path class="cls-12" d="m861.5,394.8c.6,7.9-.1,15.9-2.2,24-1.9,2-2.8,3.7-2.6,5-12,2-21.7,3-29.1,2.8-2,0-4.3-1.3-6.7-3.7,10-2.1,16.4-7.8,19-17,4.5-4.6,9.5-8.8,14.8-12.4,2-1.4,4.3-1,6.8,1.3Z"/>
  <path class="cls-7" d="m793.3,396.5c.2,17.7,9.4,26.6,27.6,26.5,2.4,2.4,4.7,3.6,6.7,3.7,7.4.2,17.1-.8,29.1-2.8-7.3,13.8-18.2,25.4-32.7,34.6-9.1,5.8-17.5,9.7-25.2,11.8-1.8-15.9-4.4-32.6-7.7-50.2-1.6-8.1-.9-15.9,2.2-23.6Z"/>
  <path class="cls-11" d="m145.3,453.6c-2,6.2-2.4,11.8-1.2,16.7,5.4,22,16.9,42.1,34.5,60.4-10.3-2-20.1-4.6-29.2-7.7-1.3-.4-2.4-.4-3.2,0s-1.8,1.1-2.8,2c-14.4-20.1-23.1-42.4-25.9-66.9-.9-7.5-1.7-15.3-2.4-23.6,1.2-9.1,3.1-18.4,5.9-27.8.1-.3.3-.4.6-.3.2,0,.3.2.3.3,6.1,16.7,14,32.3,23.4,46.9Z"/>
  <path class="cls-4" d="m859.3,418.8c.6,9.1-.5,17.9-3.3,26.6-.1.2,0,.3.1.5.3.4.4.5.4.2-.4.6-.6,1.1-.8,1.5-5.2,11-11.8,21.1-19.6,30.4-9.8,11.4-21.7,20.2-35.7,26.2l-1.6-33.9c7.7-2.1,16.1-6,25.2-11.8,14.6-9.2,25.5-20.8,32.7-34.6-.2-1.5.7-3.2,2.6-5.1Z"/>
  <path class="cls-12" d="m115.1,434.5c.7,8.2,1.6,16.1,2.4,23.6,2.8,24.4,11.5,46.7,25.9,66.9,8.9,12.2,20.7,21.9,35.5,29.2-4.2,1.2-8.4,2-12.5,2.5-7.1.9-11.3,1.5-12.6,1.8-11.7,2.8-22.2,7.8-31.6,15.1-.9.7-2.2.5-2.8-.4-.2-.2-.3-.5-.4-.8-5.6-24.1-9-48.5-10.1-73.3-1.1-23.7,1-45.3,6.2-64.6Z"/>
  <path class="cls-7" d="m877.6,454.4c-.3,6.2-1.8,12.5-4.6,18.8-3.6,8.3-7.8,16.1-12.5,23.4l-9.8,10.9c-1.5-5.8-3.1-10.4-4.8-14-2.6-5.3-10-5.8-8.1-13.2.1-.5,0-.9-.2-1.3-.4-.6-1-1-1.7-1.1,7.9-9.2,14.4-19.4,19.6-30.4.2-.4.5-.9.8-1.5,7.6-2,15.1,4.7,21.3,8.4Z"/>
  <path class="cls-12" d="m901.6,452.2c1.6,7.2,2.5,14.3,2.8,21.4,1.6,37.4-1.9,74.7-10.6,111.9-1.7,7.3-3.5,13.9-5.5,19.8-3.2-4.7-6.2-9.2-9.1-13.3-2.3-3.5-1.9-7-1-10.7,1.1-5-.2-9.2-3.3-13.4-2.1-2.9-3.6-6.2-4.4-9.8-.1-.5-.1-.9.1-1.4.7-1.8,1.2-3.5,1.7-5.3.5-1.9.5-4,.1-6.3-.9-4.3-1.7-8.8-2.3-13.6l7.1-10.8c12.6-17.7,20-35.6,22.1-53.7.7-6.4,1.5-11.3,2.3-14.8Z"/>
  <path class="cls-5" d="m145.3,453.6c2.7,2.6,4.1,5.3,4.2,8,.2,4.2.5,7.1,1,8.9,6.4,25.1,22.4,48,41.7,64.9l22.4,15.5c-.1.5-.4.9-.9,1.1-.5.2-.9.2-1.3,0-12.3-6.3-23.6-13.5-33.7-21.3-17.6-18.3-29.1-38.4-34.5-60.4-1.3-4.9-.9-10.5,1.1-16.7Z"/>
  <path class="cls-12" d="m149.5,461.6c8.9,10.7,18.4,20.3,28.5,29.1,4,9.4,6.2,19.3,6.5,29.5.1,3.7,1.9,6.9,5.3,9.5.4.3.6.6.8,1.1l1.6,4.7c-19.2-16.9-35.3-39.8-41.7-64.9-.4-1.9-.8-4.9-1-9Z"/>
  <path class="cls-12" d="m835.9,477.9c.7.1,1.3.5,1.7,1.1.3.4.4.8.2,1.3-1.9,7.4,5.5,8,8.1,13.2,1.7,3.5,3.3,8.2,4.8,14-10,12.5-22.2,22.2-36.6,29.1l-16.8,5.7,2.8-38.2c14.1-6,26-14.7,35.8-26.2Z"/>
  <path class="cls-1" d="m514.6,656.6c36.6-.4,69.2-23.1,85.8-55.1.6-1.1,1.5-1.7,2.7-1.7,20.1-.7,40.4-.8,60.9-.4,13.4.3,24.7,3.3,30.7,14.9,9.5,18.4,3,35.7-9.4,50.7-33.7,40.6-84.5,67.2-135.3,74.5-17.2,2.5-36,2.9-56.4,1.5-86.4-6.3-157-60.5-188.5-140.2-11.5-29.2-13.4-56.7-12.7-87.9.2-8.9,2.1-17.7,3.3-26.6.1-.5.5-.8,1-.7.3,0,.5.2.6.5,17.5,41.5,51.4,69.7,93.6,83.5,5.1,1.7,10.2,2.7,15.3,3.1.8.1,1.4.6,1.6,1.4,1.1,5,2.3,10.1,4.4,14.8,14.5,31.5,38.7,57.4,73.3,64.8,9.8,2,19.6,3,29.1,2.9Z"/>
  <path class="cls-2" d="m178,490.6c11.3,7.6,22.5,12.5,33.7,14.9l7.6,6.6c.9,12.5,2,25.1,3.2,37.9.1,1.2-.8,2.2-2.8,2.7-1.5-1.1-3.2-1.8-5.1-2l-22.4-15.5-1.6-4.7c-.1-.4-.4-.8-.8-1.1-3.5-2.6-5.3-5.8-5.3-9.5-.3-10-2.5-19.8-6.5-29.3Z"/>
  <path class="cls-9" d="m860.5,496.6c.5,2.7.5,4.9,2.2,7.3,1.2,1.6,2.3,3.3,3.2,5,.2.4.5.8.9,1,3.9,2.5,7.3,6.1,10.3,10.6l-7.1,10.8c-9.4,11.9-20.2,21.7-32.4,29.4-1.6-4.8-4.8-6.1-10-7.1-8.8-1.6-13.3-7.3-13.5-17.1,14.4-6.9,26.6-16.6,36.6-29.1l9.8-10.8Z"/>
  <path class="cls-3" d="m178.6,530.6c10.1,7.9,21.4,15,33.7,21.3.4.2.9.2,1.3,0,.5-.2.8-.6.9-1.1,1.9.2,3.6.8,5.1,2,2.4.8,4.2,2,5.6,3.7.3.3.2.9-.1,1.2l-.1.1c-3.2,1.9-6.7,2.6-10.4,2-12.6-1.8-24.5-3.7-35.7-5.6-14.8-7.3-26.6-17-35.5-29.2,1-.9,1.9-1.6,2.8-2,.9-.4,1.9-.4,3.2,0,9.2,3,18.9,5.6,29.2,7.6Z"/>
  <path class="cls-2" d="m870.1,531.5c.7,4.8,1.5,9.3,2.3,13.6.5,2.3.4,4.4-.1,6.3-.5,1.8-1.1,3.6-1.7,5.3-.2.5-.2.9-.1,1.4.8,3.6,2.3,6.8,4.4,9.8,3.1,4.3,4.4,8.5,3.3,13.4-.8,3.8-1.3,7.3,1,10.7,2.8,4.2,5.8,8.6,9.1,13.3-3.1,11.3-6.7,23.1-10.7,35.5-.1.4-.3.7-.5.8-.3.3-.6.4-.9.4-.5,0-1-.4-1.1-.9-5.7-26-22.9-44.8-48.8-50.2-13-2.7-27.1-3.4-39.6,1.6-.9.4-2-.1-2.4-1-.1-.3-.1-.5-.1-.8.3-4.7,2.1-9.1,5.3-13.1,17.4-2.1,33.4-7.6,48-16.8,12.4-7.7,23.2-17.4,32.6-29.3Zm4.2,38.2c-4.1-5.8-12.3-6.9-18.5-2.6-6.2,4.3-7.9,12.5-3.8,18.3h0c4.1,5.8,12.3,6.9,18.5,2.6,6.1-4.4,7.8-12.5,3.8-18.3h0Z"/>
  <path class="cls-3" d="m814.2,536.6c.2,9.8,4.7,15.5,13.5,17.1,5.2,1,8.4,2.3,10,7.1-14.6,9.1-30.6,14.7-48,16.8l7.7-35.3,16.8-5.7Z"/>
  <ellipse class="cls-4" cx="863.07" cy="577.62" rx="13.6" ry="12.8" transform="translate(-175.14 603.12) rotate(-35.2)"/>
  <path class="cls-5" d="m290.4,635.6c-.1.4-.4.7-.9.8-.3.1-.7,0-.9-.2-20.1-18.3-43.1-31.4-69-39.5-6.5-2-16.7-3.6-30.4-4.6-.1,0-2.7-.4-7.8-1.2-4.2-.7-8.8-.2-13.8,1.3-4.4,1.3-9.4,1-15-.8,12.6-4.6,24.6-6.6,36.1-5.9,40.9,2.3,74.9,19.1,101.7,50.1Z"/>
  <path class="cls-9" d="m290.4,635.6c1.7,1.3,2.8,2.7,3.4,4.2.2.5-.1,1-.6,1.1-.2.1-.4.1-.6,0-10.3-4-20-6-30.9-7.3-3-.3-5.9-1-8.7-1.8-10.8-4.9-22.1-8.3-33.7-10.3-7.8-1.3-16.4-3.5-23.6-4-14.8-1.1-29,.8-42.8,5.7-5.4,1.9-10.6,5.7-15.4,11.2-3.1-8.3-5.7-16.4-8-24.4-.7-2.3.1-4.1,1.9-5.8,6.5-5.9,13.4-10.2,20.9-12.9,5.6,1.8,10.6,2.1,15,.8,5-1.5,9.6-1.9,13.8-1.3,5.1.8,7.7,1.2,7.8,1.2,13.7,1,23.9,2.5,30.4,4.6,25.9,8.1,48.9,21.3,69,39.5.2.2.6.3.9.2.7,0,1-.3,1.2-.7Z"/>
  <path class="cls-5" d="m835.2,624.7c-2.3,1.2-4.9,1.5-7.7.8-3-.7-4.6-1.1-4.7-1.1-13.3-1.9-26.6-1.5-40,1.2,16.6-11.3,34-11.7,52.4-.9Z"/>
  <path class="cls-2" d="m252.9,631.8c-.8,1.3-1.7,2.3-3.4,2.5-13.9,1.7-26.2,3.7-37.2,12.2-19.5,15.2-32.8,39.4-32.3,65.1,0,.3-.2.5-.5.5-.1,0-.3,0-.4-.1-1.2-1.1-2.2-2.3-3.1-3.7-16-23.3-28.8-47.9-38.5-74,4.8-5.5,9.9-9.3,15.4-11.2,13.7-4.8,28-6.7,42.8-5.7,7.2.5,15.8,2.7,23.6,4,11.6,2.1,22.8,5.5,33.6,10.4Zm-88.8,7.6c-10.2,9.9,4.4,23.6,14.5,16.8,9.8-6.7-2.2-28.7-14.5-16.8Z"/>
  <path class="cls-11" d="m835.2,624.7c20.1,15.4,26.9,35.7,20.2,60.9l-12.7,1.5c-.3,0-.6-.1-.7-.4-.6-1.5-1.8-2.4-3.4-2.8-.4-.1-.9.1-1,.6-.1.2,0,.4.1.6l2.6,4.9c.1.1.1.3,0,.4l-.3.5c-.1.1-.3.1-.4,0l-.1-.1c-.6-1.8-1.7-3.1-3.3-4.1-.5-.3-1.2-.1-1.5.4v.1c-1.8,3.8-3.2,4.4-4,1.9,7.5-12.9,7.3-24.9-.5-36.1-10.5-15-31.6-15.2-41.7.6-5.2-.9-9.5-.6-13,1.1-4.2,2-7.8,2.9-10.7,2.8,1.3-13.5,7.4-24,18.1-31.6,13.4-2.7,26.7-3.1,40-1.2.1,0,1.7.4,4.7,1.1,2.7.4,5.3.2,7.6-1.1Z"/>
  <path class="cls-4" d="m178.5,656.2c-10.1,6.8-24.7-6.9-14.5-16.8,12.4-11.9,24.4,10.1,14.5,16.8Z"/>
  <path class="cls-3" d="m788.5,653.4c-4.8,11.6-2.6,21.1,6.6,28.6,1.3,1.1,1.5,3,.5,4.4l-.3.3c-4.9,4.6-9.9,5.2-15.1,1.8-11.1-7.3-16.3-17.7-15.5-31.1,2.9.1,6.5-.8,10.7-2.8,3.5-1.8,7.9-2.1,13.1-1.2Z"/>
  <path class="cls-5" d="m293.9,673.5c-1.9,1.8-4.3,1.7-6.5,0-12.4-9.5-26.4-8.6-42.9-7.3-2.3.2-3.7-.8-4-2.8,19.3-7,37.1-3.6,53.4,10.1Z"/>
  <path class="cls-11" d="m240.6,663.4c.4,2,1.7,3,4,2.8,16.5-1.3,30.5-2.2,42.9,7.3,2.2,1.7,4.5,1.8,6.5,0,10.9,9.6,16.4,21.6,16.7,36l-1,10.2c-.6.5-1.3.5-2.1.2-2.8-1.3-5.5-.9-8,1.1-.4.3-.9.4-1.4.3-3.4-.9-6.3-3.1-8.6-6.8-.3-11.4-4.9-19.7-13.8-24.8-18.7-10.9-37.9,3.7-41.1,22.7-5.3-2.4-10.9-4.2-16.8-5.2-.5-.1-.8.1-1.2.4l-1.9,2.1c-.4.5-.8.4-1.2-.1l-5-7c4.3-18.1,14.9-31.2,32-39.2Z"/>
  <path class="cls-11" d="m752,696.7c-5.2.9-7.1,3.6-5.7,8.2-.4,4.3-1.6,8.3-3.6,12-.2.4-.3.9-.1,1.4.9,2.8,3.5,6.5-1.1,7.8-.4.1-.7-.1-.8-.4v-.2c-.1-2.5-1.4-3.6-3.9-3.3-.6.1-1,.4-1.3,1l-2.4,5.9c-.2.5-.8.8-1.3.5-.2-.1-.3-.2-.4-.3l-1.1-1.3c-.3-.4-.4-.8-.2-1.3.9-1.9,1.9-3.7,3.1-5.5,1.1-1.6,1.7-3,1.9-4.3.3-1.6.4-3.3.5-5,0-.4-.3-.7-.7-.7-.3,0-.6.2-.7.5l-1.2,3.7c-.1.4-.4.6-.7.8-1.4.6-1.8,1.8-1.4,3.4.2.6,0,1.2-.5,1.5-2.5,2-3.2,4.5-2.1,7.7.2.4.4.8.8,1l6,3.8c.4.2.8.1,1-.2.1-.1.1-.2.1-.4l.1-6.8c0-.6.5-1,1-1h.6c.5,0,.8.2.7.8-.4,4.8,1.2,12.6-5.8,13.3-.5,0-.7-.2-.8-.6l-.1-.4c0-.3,0-.5.1-.8.5-1,1.2-1.4,2.3-1,.2.1.5,0,.6-.3.1-.2,0-.4-.2-.6l-2.3-1.7c-1-.8-2.5-.5-3.3.5-.4.6-.6,1.3-.4,2l2.3,8.4c.2.6-.2,1.2-.7,1.4-.5.1-.9,0-1.2-.4-.8-1-1.2-2.2-1.1-3.5,0-.7-.5-1.2-1.1-1.3-.4,0-.8.2-1.1.5-.9,1.3-2.1,1.8-3.7,1.3-.5-.2-.8,0-1,.5l-2.1,5.9,2.2,1.5-5,3.3c-.5.4-1.2.2-1.6-.3-.3-.5-.2-1.2.2-1.5.8-.7,1.1-2.1.9-4.3,6.5-16.4,9.1-33.6,7.7-51.5,0-.6.1-1.2.4-1.7,3.7-6.3,8.3-12,13.7-16.9.6-.5,1.4-.4,1.9.1.1.1.2.2.2.4,3.2,6.3,7.2,12.5,12.4,18.4Zm-23.2,36.8c.5-.4.4-1.4-.2-2.3-.6-.9-1.5-1.3-2-1-.5.4-.4,1.4.2,2.3.6.9,1.5,1.3,2,1Zm-4.9,1.4l1.8,5c.1.4.5.6.8.5l1-.1c.4,0,.8-.4.7-.8v-.1c-.3-2.3-1.3-4.1-3.1-5.5-.4-.3-.9-.2-1.2.1-.1.3-.1.6,0,.9Z"/>
  <path class="cls-3" d="m855.5,685.6c-4.1,12.6-10.2,23.9-18.2,34.1l-8.5,2.4c-.5.2-1.1.2-1.6.1-3.1-.5-5.1-2.3-6.1-5.3-.2-.4-.5-.8-.9-1l-5.5-2.8c-.5-.2-.9-.3-1.4-.2-4.8.9-9.5,2-14.2,3.3-3.9,1.1-7.7.8-11.7.8-2.9,0-5.8-.5-8.6-1.5-4.9-1.7-9.8-3.3-14.8-4.9-.5-.2-1-.1-1.5.3-.6.5-1.4.6-2.3.4-.1,0-.2-.1-.3-.1-2.9-1.6-5.7-1.7-8.6-.5-.4.2-.8.1-1.1-.3l-3.8-5.5c-1.4-4.6.5-7.4,5.7-8.2,21.9,24.9,63,24,78.7-7.8.8,2.6,2.2,1.9,4-1.9.2-.5.9-.8,1.4-.5h.1c1.6.9,2.7,2.3,3.3,4.1,0,.1.2.2.4.2q.1,0,.1-.1l.3-.5c.1-.1.1-.3,0-.4l-2.6-4.9c-.2-.4-.1-.9.3-1.1.2-.1.4-.1.6-.1,1.6.4,2.8,1.3,3.4,2.8.1.3.4.5.7.4l12.7-1.3Zm-12.2,3.7c-.6-.4-1.1-.2-1.4.7-.4.9.1,1.9,1,2.3.7.3,1.4.1,1.9-.4l1.2-1.2c.6-.6.5-.9-.4-.9h-1c-.5-.1-.9-.2-1.3-.5Z"/>
  <path class="cls-11" d="m844.6,689.7h1c.9,0,1,.3.4.9l-1.2,1.2c-.7.7-1.8.7-2.5.1-.5-.5-.7-1.3-.4-1.9.3-.9.8-1.1,1.4-.7.4.3.8.4,1.3.4Z"/>
  <path class="cls-14" d="m208.8,702.6l5,7c.4.5.8.5,1.2.1l1.9-2.1c.3-.3.7-.5,1.2-.4,5.8,1,11.4,2.8,16.8,5.2-1.5,17.9,6.9,32.2,20.2,43.3l-1.8,2.9c-.3.4-.6.5-1,.2-2.8-2.1-4.8-7-8.3-4.6-.3.2-.3.4-.2.7l2.9,5.8c.2.3.5.6.9.7,1.4.2,1.8.6,2.6,1.7,3.7,5.4,8,10.1,13.1,14.2,1.3,1.1,3.1,1.6,4.6,2.8.5.4.4.5-.2.5-5.3-.5-9.7-2.5-13.1-6-1.4-1.5-2.2-2.4-4.4-1.9-2.4.6-4.4,1.5-5.9,2.9-1.5-2.5-3.7-4.8-6.5-6.7-.3-.2-.7-.1-.9.2-.2.2-.1.5,0,.7l2.8,3.2c.1.1.1.2,0,.3,0,.1-.1.2-.2.3-.1.3-.4.4-.7.3h-.1c-2.3-1.4-4.5-3-6.7-4.6-.4-.3-.8-.4-1.1-.2s-.4.5-.2.8c0,.1.1.1.2.2l7.7,5.4-4.2.2c-4.5-4.3-8.5-9.2-11.9-14.6-11.7-18.3-18-36.4-13.7-58.5Zm15,52.3c0-.4-.2-.8-.4-1.1-.3-.4-.9-.4-1.2-.1-.3.3-.4.7-.2,1.1,1.7,4,4.2,7.3,7.5,10.1.2.1.4.1.6-.1.1-.1.1-.2.1-.4-1.2-3.2-3.1-5.9-5.5-8.1-.6-.4-.8-.9-.9-1.4Z"/>
  <path class="cls-14" d="m746.3,704.9l3.8,5.5c.3.4.6.5,1.1.3,2.9-1.3,5.7-1.1,8.6.5.1.1.2.1.3.1.9.2,1.7.1,2.3-.4.4-.4.9-.4,1.5-.3,5,1.5,9.9,3.2,14.8,4.9,2.8,1,5.7,1.5,8.6,1.5,4,0,7.8.4,11.7-.8,4.7-1.3,9.4-2.4,14.2-3.3.5-.1,1,0,1.4.2l5.5,2.8c.4.2.7.6.9,1,1,3,3.1,4.8,6.1,5.3.5.1,1.1.1,1.6-.1l8.5-2.4-9,12.4c-1.9-1.4-3.6-1.7-5.3-.9-8.4,4.2-16.4,7.2-23.9,8.8-3.9.9-8.4,1-13.4.4-7.1-.8-14.1-1.7-21.2-2.8-9.8-1.5-9.7-7.7-17-11.5-.7-.4-1.6-.1-2,.6-.1.1-.1.3-.1.5-2.5,17-7.2,33.2-14,48.7-4.7,10.6-11.7,20.1-18.7,29.6-.7-2,.3-3.9,3.2-5.7.7-.4.9-1.3.5-2-.2-.3-.5-.5-.9-.6-2.9-.7-4.4.2-4.4,3,0,.4-.3.7-.7.7-.2,0-.3-.1-.5-.2l-2.1-1.7c-.6-.5-1.6-.4-2.1.2,0,.1-.1.1-.1.2l-.9,1.6c-.3.4-.8.6-1.2.3,0,0-.1,0-.1-.1l-2.3-1.8c-.6-.5-1-.3-1.2.4-.5,2.3.8,4.9.6,6.2-.1.3-.2.4-.4.6-.5.3-.9.2-1.2-.3l-.7-1.5c-.3-.5-.7-.8-1.2-1-2-.6-3.4,0-4.4,1.7-.1.2-.4.3-.5.2s-.2-.2-.2-.3l-.3-1.6c-.1-.6-.7-1-1.3-.8h0c-3.3.8-6,2.6-8.1,5.3-.4.5-.3.9.4,1,.9.2,1.8-.1,2.6-.8.1-.1.4-.1.5,0l.4.2c.2.1.2.3.1.4l-1.2,1.8c-.2.3-.1.7.2.9.2.1.3.1.5.1l1.3-.2c.5-.1.7.1.8.6.1,1.5-.7,2.7-2.3,2.8s-2.8-.5-3.4-1.9c-.2-.5-.6-.7-1.2-.8-1.5-.1-2.5.5-2.9,2-.1.3-.5.5-.8.4-.2-.1-.3-.2-.4-.4l-.2-.6c-.1-.5-.6-.8-1.1-.6-.3.1-.5.3-.6.6-.8,2-1,4-.7,6.1.1.5-.1,1-.5,1.2l-7.5,4.9c-.6.4-.6.8-.1,1.2l.5.5c.3.2.4.7.1,1-.2.3-.6.3-.9.2l-1.7-.8c-.5-.2-.7-.7-.5-1.2q0-.1.1-.1c1.8-2.8,4.3-4.8,7.4-6.1.7-.3,1-.8,1-1.5v-1.2c0-.5-.4-.9-1-.9-.2,0-.5.1-.6.3l-8.6,8c-.2.2-.3.4-.4.7-.2,1.4-.7,2.7-1.4,3.9-.2.3-.6.4-.9.2-.3-.2-.4-.5-.3-.7l.5-1.7c.1-.4-.1-.9-.6-1h-.3c-4.7.3-3.7,6.1-9,7.4-.3.1-.5-.1-.6-.3,0-.2,0-.3.1-.5,1.6-1.6,2.6-3.2,3-4.8,24.3-16,42.9-36.8,56-62.5l.4,2.9c.1.6.4.8,1,.8l3.1-.2c.3,0,.6-.3.6-.7v-.1l-1.3-8.5c-.1-.4.2-.7.6-.8.2,0,.4,0,.6.2,1.8,1.5,2.5,3.5,2.1,5.9-.1.5.3,1,.8,1.1h.1l2.5.1c.9,0,1.1-.4.7-1.1-1.5-2.8-1.7-5.7-.7-8.7.2-.7-.2-1.4-.8-1.6-.4-.1-.9,0-1.3.3-.1.1-.2.4-.2.8,0,.6-.3.7-.8.5l-2.6-1.2,3.2-7.8c.3,2.2,0,3.6-.9,4.3-.5.4-.6,1.1-.2,1.6.4.5,1,.6,1.5.2l5-3.3c.6-.9.9-1.6.7-2.3-.1-.4-.4-.6-.8-.3l-2.1,1.2,2.1-5.9c.2-.5.5-.7,1-.5,1.6.5,2.8,0,3.7-1.3.4-.6,1.1-.7,1.7-.3.4.2.6.6.5,1.1-.1,1.3.3,2.5,1.1,3.5.4.5,1.1.6,1.6.2.4-.3.5-.8.4-1.2l-2.3-8.4c-.3-1.2.4-2.5,1.6-2.9.7-.2,1.4-.1,2,.4l2.3,1.7c.2.1.3.4.1.6-.1.2-.4.3-.6.2-1-.3-1.8,0-2.3,1-.1.2-.1.5-.1.8l.1.4c.1.4.4.6.8.6,7-.7,5.4-8.4,5.8-13.3,0-.5-.2-.8-.7-.8h-.6c-.6,0-1,.5-1,1l-.1,6.8c0,.4-.4.7-.8.7-.1,0-.3,0-.4-.1l-6-3.8c-.4-.2-.7-.6-.8-1-1.1-3.1-.4-5.7,2.1-7.7.5-.4.7-1,.5-1.5-.5-1.6,0-2.8,1.4-3.4.3-.1.6-.4.7-.8l1.2-3.7c.1-.4.5-.6.9-.5.3.1.5.4.5.7-.1,1.7-.2,3.4-.5,5-.2,1.2-.8,2.6-1.9,4.3-1.2,1.7-2.2,3.5-3.1,5.5-.2.5-.2.9.2,1.3l1.1,1.3c.4.4,1,.5,1.4.1.1-.1.2-.2.3-.4l2.4-5.9c.2-.6.7-.9,1.3-1,2.5-.3,3.8.8,3.9,3.3,0,.4.3.7.7.6h.2c4.6-1.4,2-5.1,1.1-7.8-.1-.5-.1-.9.1-1.4,2-3.7,3.2-7.7,3.6-12Zm-17.5,43.5c.5-.7-.4-2.2-2-3.3h0c-1.6-1-3.3-1.3-3.8-.5h0c-.5.7.4,2.2,2,3.3h0c1.6,1,3.3,1.3,3.8.5h0Zm-.4,14.6l1.2.1c.3,0,.5-.2.5-.5,0-.2-.1-.3-.2-.4-1.5-1.1-2.5-2.5-3.1-4.1-.7-2-1.7-2.8-3.8-2.3-.5.1-.8.6-.7,1,0,.2.2.4.3.5l2.4,1.8c.5.4.6,1.1.3,1.6l-1.7,2.6c-.2.3-.1.7.2.9.2.1.4.1.6.1l2.6-1c.5-.2.9-.3,1.4-.3Zm-7.9,1.7c.2.6.9.8,1.5.6s.8-.9.6-1.4c-.5-1.4-1.3-2.4-2.6-3.2-.3-.2-.8-.1-1,.3-.1.2-.1.4,0,.6l1.5,3.1Z"/>
  <path class="cls-2" d="m310.6,709.5c16.7,15.5,34.5,28.5,55.9,36.7.8.3,1.3,1.3.9,2.1-.2.4-.5.7-.9.9-1.8.7-3.8,1.3-6,1.7-16.7,3-33.5,3.1-50.3.5-3.6-.6-9.8-3.1-18.8-7.8,9.1-5.4,15.1-12.9,18.1-22.3.2-.6.2-1.2.1-1.8l1-10Z"/>
  <path class="cls-3" d="m289.6,714.5c2.4,3.6,5.3,5.9,8.6,6.8.5.1,1,0,1.4-.3,2.5-2,5.2-2.4,8-1.1.7.3,1.4.3,2.1-.2.2.6.1,1.1-.1,1.8-2.9,9.4-9,16.8-18.1,22.3-5-1.5-9.7-4.4-14.1-8.8-.8-.8-.8-2.1,0-2.9.1-.1.2-.2.4-.3,6-3.8,9.9-9.5,11.8-17.3Z"/>
  <path class="cls-2" d="m828.3,732.1c-18.1,24.9-38.9,48.4-62.9,67.7-37,29.8-77.5,53.4-121.6,70.9-8.4,3.4-17.8,6.4-28.1,9.1-28.6,7.6-51.7,12.9-80.8,13.7-24.2.7-45.5.4-63.9-.7-8-.5-16.8-2.2-26.5-5.2,11.8-.7,23.3-2.6,34.5-5.6,7.5-2,14.9-5,22.2-9,12-6.7,23.5-14.4,34.3-23.3,1.3-1.3,2.9-2.6,4.7-3.9,2.1-1.5,3.7-2.7,4.8-3.7,20.8-18.3,39.5-33,60.8-46.2,19.5-12.1,37.2-25.8,53.2-41,2-1.9,2.9-3.9,2.7-6.1,11.4-6,22.2-13.4,32.2-22.3.5-.4,1.2-.4,1.7.1.2.3.3.6.3.9-.1,1-.2,3-.7,4-13.9,28.7-33.6,52.6-59.1,71.8-13.4,10.1-33.6,22.3-48.5,34-6.4,5.1-12.7,10.3-18.8,15.7-.4.3-.4.9-.1,1.2.1.2.3.3.6.3,2.3.2,4.7.1,7.2-.3,9-1.5,17.1-2.9,24.1-4.1,11.5,6.6,22.7,9.7,33.6,9.4,3.9-.1,8.9-4.4,12.9-5.7,6.2-2.2,10.4-3.9,12.4-5.3,2.5-1.7,4.8-2.6,6.8-2.6.4,0,.8-.1,1.2-.4l6.6-4.6c.3-.2.7-.3,1.1-.4,7.1-.3,8-5.2,12.4-9.2.4-.3.6-.7.6-1.2.1-1.1.7-1.8,1.8-1.9.5-.1.8-.4.9-.9.3-1.3.1-2.8-.7-4.3l.1-.9c1.1-1.7,2-1.5,2.9.6.2.4.1.8-.1,1.2-.5.8-.8,1.6-.8,2.6s.3,1.1,1,.4c7.2-6.8,13.6-14,19.2-21.5,7-9.6,14.1-19,18.7-29.6,6.8-15.5,11.4-31.8,14-48.7.1-.8.8-1.3,1.6-1.2.2,0,.3.1.5.1,7.2,3.8,7.2,9.9,17,11.5,7,1.1,14.1,2,21.2,2.8,5.1.6,9.6.4,13.4-.4,7.5-1.6,15.4-4.6,23.9-8.8,1.8-.7,3.6-.4,5.5,1Zm-68,44c3.1,1.5,7,.1,8.6-3.1,1.6-3.3.4-7.2-2.8-8.7-3.1-1.5-7-.1-8.6,3.1h0c-1.6,3.2-.4,7.1,2.8,8.7Z"/>
  <ellipse class="cls-7" cx="727.73" cy="731.84" rx="1.1" ry="2" transform="translate(-286.2 539.17) rotate(-34.4)"/>
  <path class="cls-7" d="m725.6,739.9l-1.8-5c-.1-.4.1-.9.5-1.1.3-.1.6,0,.8.1,1.7,1.4,2.8,3.2,3.1,5.5.1.4-.2.8-.7.9h-.1l-1,.1c-.3.1-.6-.2-.8-.5Z"/>
  <ellipse class="cls-3" cx="725.84" cy="746.44" rx="1.6" ry="3.5" transform="translate(-295.49 948.68) rotate(-57)"/>
  <path class="cls-3" d="m721.4,750.5l-2.2-1.5,2.1-1.2c.4-.2.7-.1.8.3.1.8-.1,1.6-.7,2.4Z"/>
  <path class="cls-10" d="m661.8,749c.2,2.2-.7,4.2-2.7,6.1-15.9,15.2-33.7,28.8-53.2,41-21.3,13.2-40,27.9-60.8,46.2-1.1.9-2.7,2.2-4.8,3.7-1.8,1.3-3.3,2.5-4.7,3.9-4.5-.4-8.2.3-11,2.2-4.2,2.8-9.2,7.3-14.3,7.8-4.6.4-11.6-1.4-13.1,4.7-.2.9-.4.9-.6,0l-.4-1.8c-.1-.5-.4-.8-1-.9l-3.2-.6c-.3-.1-.6-.4-.5-.7,0-.2.1-.3.2-.4,2-1.5,3.3-3.2,3.9-5.2,4.2-2.8,8.2-5.6,12.1-9.1,14.1-12.8,28.1-25.7,42.2-38.5,19.1-17.4,40.8-26.6,66.6-36.5,15.7-6.2,30.7-13.4,45.3-21.9Z"/>
  <path class="cls-10" d="m254.9,755.6l6.7,6.4c3,4.2,6.7,7.3,11.1,9.1,18.6,7.8,38.7,11.9,60.2,12.3,23.2.4,46.2,1.2,68.8,2.2,7.4,2.8,13.3,4.5,17.8,5.1,2.7.4,6.6,0,11.6-1.1,8.3-.4,15.6-1.3,21.9-2.7.7-.2,1.2-.8,1.5-1.9l54.5,6.6c.4,0,.7.4.6.8,0,.1-.1.2-.1.3l-4.8,6.7c-.8-1.1-.3-2.3,1.5-3.6.4-.3.4-.6-.1-.8-3.4-1.5-6.8-2.1-10.4-1.6-.5.1-.7.3-.8.8-.2,1.4.1,2.5,1.1,3.3.4.3.4.6,0,.9l-1,.8c-.1.1-.2.3-.2.5,0,1.7-.7,2.5-2.3,2.2-1.8-.3-3.2-1.1-4.4-2.4-.2-.2-.1-.5,0-.7.2-.1.4-.2.5-.1l3.1,1.7c.6.3,1.3.1,1.6-.5.1-.3.2-.6.1-.8-.6-2.5-2.2-3.6-4.9-3.1-.6.1-1,.4-1.2.9-.6,1.2-1.6,2-3,2.5-.4.1-.7.6-.6,1.1l.5,1.7c.2.7,0,1.1-.8,1l-1.3-.1c-.4,0-.8-.4-.7-.8l.1-2.5c0-.4-.3-.8-.7-.8-.2,0-.4.1-.6.2l-3.8,4.1c-.4.4-.8.6-1.4.6l-19.2-.6c-.5,0-.9.2-1.1.7l-.3.7c-.2.3-.5.6-.9.6l-6.8-.1c-.5,0-.9-.2-1.2-.6-2.4-3.2-5-3.5-8-.9-.4.4-1,.5-1.6.2-.8-.4-1.7-1-2.8-1.8-2.6-2-5-1.9-7.2.6-.6.7-1,.6-1.1-.3-.3-2.7-2.1-3.5-5.3-2.2-.7.3-.7.6-.2,1.1l2.6,2.5c.2.2.2.5,0,.6-.1.1-.3.2-.5.1-1.6-.6-3-1.4-4.3-2.6-.3-.3-.7-.5-1.1-.5-2.3-.2-3.8.8-4.4,3-.1.5-.7.8-1.2.7-2.4-.5-4.4-1.6-6.2-3.3-.3-.3-.7-.5-1.2-.5-2.8,0-5.4.6-7.9,1.8-.5.3-1,.4-1.6.3l-1.8-.1c-.4,0-.8.3-.8.7v.2c.4,1.9-.2,3.1-1.8,3.7-.7.2-1.1,0-1.1-.8-.1-2.6-1.3-4.5-3.4-5.7-.4-.3-.8-.6-1.1-1-1.3-2.1-1.9-4.4-1.6-6.9,0-.2-.1-.3-.3-.4h-.2c-.1.1-.3.1-.4.2-.2.1-.3.3-.3.5.5,3-.2,5.6-2.1,7.9-12.2-5.9-21.6-4-28.2,5.8-5.3,3.5-10,4.1-14.3,2-2.7-2.7-6.2-3.3-6-8.3,0-.5-.4-1-.9-1h-.3l-2.9.8c-.6.2-.8.5-.5,1.1l3.4,7.5c-7.7-1-14.1-1.7-21.9-3.9-2.5-.7-5.5-1.4-9.2-2.2-8.6-1.8-19.3-6.7-29.3-10.9-4.8-2-9-4.7-12.6-8,0-3.3-2-5-6-5-.5,0-1-.2-1.4-.5l-4.9-3.8c1.5-1.4,3.5-2.4,5.9-2.9,2.3-.5,3,.4,4.4,1.9,3.4,3.5,7.8,5.5,13.1,6,.6.1.7-.1.2-.5-1.5-1.2-3.3-1.7-4.6-2.8-5.1-4.1-9.4-8.8-13.1-14.2-.8-1.2-1.3-1.5-2.6-1.7-.4-.1-.7-.3-.9-.7l-2.9-5.8c-.1-.3-.1-.5.2-.7,3.5-2.4,5.5,2.5,8.3,4.6.4.3.8.2,1-.2l2.3-2.7Z"/>
  <path class="cls-12" d="m224.5,756.3c2.4,2.2,4.3,4.9,5.5,8.1.1.2,0,.4-.3.5-.1,0-.3,0-.4-.1-3.3-2.8-5.8-6.2-7.5-10.1-.2-.4,0-1,.4-1.2s.8-.1,1.1.2.4.7.4,1.1c.2.6.4,1.1.8,1.5Z"/>
  <path class="cls-3" d="m708.1,765.7l4.5-10.3,2.6,1.2c.5.2.8.1.8-.5,0-.4.1-.7.2-.8.5-.5,1.3-.5,1.8,0,.3.3.4.8.3,1.2-1,3-.8,5.9.7,8.7.4.8.2,1.1-.7,1.1l-2.5-.1c-.5,0-.9-.4-.9-1v-.1c.4-2.4-.3-4.3-2.1-5.9-.3-.2-.7-.2-1,.1-.1.2-.2.4-.2.6l1.3,8.5c.1.3-.2.7-.5.7h-.1l-3.1.2c-.6,0-.9-.2-1-.8l-.1-2.8Z"/>
  <path class="cls-3" d="m727,763.2l-2.6,1c-.3.1-.7,0-.8-.4-.1-.2-.1-.4.1-.6l1.7-2.6c.3-.5.2-1.2-.3-1.6l-2.4-1.8c-.4-.3-.4-.8-.1-1.2.1-.2.3-.3.5-.3,2.1-.4,3.1.3,3.8,2.3.6,1.6,1.6,3,3.1,4.1.2.2.3.5.1.7-.1.1-.3.2-.4.2l-1.2-.1c-.6.1-1,.2-1.5.3Z"/>
  <path class="cls-3" d="m720.5,764.7l-1.5-3.1c-.2-.4,0-.8.4-.9.2-.1.4-.1.6,0,1.3.8,2.1,1.8,2.6,3.2.2.6-.1,1.2-.7,1.5-.6.1-1.2-.2-1.4-.7Z"/>
  <path class="cls-15" d="m261.6,762.1c24.1,13.8,49.9,19.8,77.6,17.9,13.8-.9,27.6-1.8,41.4-2.7,16.8-1,30.1-.5,39.9,1.4,11.3,2.3,22.6,4.4,34,6.3-.2,1.1-.7,1.8-1.5,1.9-6.3,1.4-13.6,2.4-21.9,2.7l-29.4-4.1c-22.6-1-45.5-1.7-68.8-2.2-21.6-.4-41.6-4.5-60.2-12.3-4.4-1.7-8.1-4.7-11.1-8.9Z"/>
  <ellipse class="cls-8" cx="763.19" cy="770.07" rx="6.6" ry="6.3" transform="translate(-264.7 1114.88) rotate(-63.8)"/>
  <path class="cls-12" d="m244.1,775.5l4.9,3.8c.4.3.9.5,1.4.5,4,0,6,1.7,6,5l-17.9-9.3-7.7-5.4c-.3-.2-.4-.6-.2-.9q.1-.1.2-.2c.3-.2.7-.1,1.1.2,2.2,1.6,4.4,3.1,6.7,4.6.3.2.6.1.8-.2v-.1c.1-.1.1-.2.2-.3.1-.1,0-.2,0-.3l-2.8-3.2c-.2-.3-.2-.7.1-.9.2-.2.5-.2.7,0,2.8,1.9,5,4.1,6.5,6.7Z"/>
  <path class="cls-2" d="m238.4,775.6l17.9,9.3c3.6,3.3,7.8,6,12.6,8,10,4.2,20.7,9.1,29.3,10.9,3.6.8,6.7,1.5,9.2,2.2,7.8,2.2,14.2,2.9,21.9,3.9,2,1.1,4.5,1.1,7.3-.1,4.3,2.1,9.1,1.5,14.3-2-4.2,11.1-4.4,23.5,8.8,27.5,16,4.8,26.9-8.2,25-24,5.2.1,10.3-.1,15.3-.5,2.8-.2,6.3.5,9.4-.2,2.9-.7,5-1,6.2-1,5.5,0,11-.1,16.5-.2.5,0,1-.1,1.4-.4,4.9-2.9,7,1.6,12.3.8.5-.1,1,0,1.4.3,3.5,2,15.1.9,19.6.9,3.2,0,3.6-1.1,4.5-3.8.1-.2.3-.3.5-.3.1,0,.1.1.2.1l3.7,3.8c.3.3.8.5,1.2.4,2.1-.5,3.9-1.5,5.4-3.1.3-.3.8-.4,1.2-.1,1.5,1.2,3,1.3,4.6.4.4-.3.9-.4,1.4-.4l5.9-.2c.5,0,1-.3,1.3-.7.9-1.3,1.9-1.5,2.7-.5-11.6,12.5-19.2,20.1-22.6,22.8-12.8,10-27.2,18.5-43.1,25.7-28.9,13-57.6,13.6-86.8,2.3-36.9-14.3-69.9-36.9-98.5-64.5-1.3-1.3-3.3-3.5-5.8-6.5-3-3.6-6.7-6.1-8.5-10.5l4.3-.3Zm185.6,60.2c0-3.7-3-6.8-6.8-6.8h0c-3.7,0-6.8,3-6.8,6.8h0c0,3.7,3,6.8,6.8,6.8s6.8-3,6.8-6.8Z"/>
  <path class="cls-3" d="m401.7,785.6l29.4,4.1c-5,1.1-8.9,1.5-11.6,1.1-4.5-.6-10.5-2.4-17.8-5.2Z"/>
  <path class="cls-12" d="m504.6,799.5l-5.1,7c-.9-1-1.8-.8-2.7.5-.3.4-.8.6-1.3.7l-5.9.2c-.5,0-1,.2-1.4.4-1.6.9-3.1.8-4.6-.4-.4-.3-.9-.2-1.2.1-1.5,1.6-3.3,2.6-5.4,3.1-.4.1-.9,0-1.2-.4l-3.7-3.8c-.2-.2-.4-.2-.6,0,0,0-.1.1-.1.2-.9,2.7-1.3,3.8-4.5,3.8-4.5,0-16.1,1.1-19.6-.9-.5-.3-.9-.3-1.4-.3-5.3.8-7.3-3.6-12.3-.8-.4.3-.9.4-1.4.4-5.5.1-11,.1-16.5.2-1.2,0-3.3.3-6.2,1-3.1.7-6.6-.1-9.4.2-5,.4-10,.6-15.3.5l-5.8-9.2c1.8-2.3,2.5-4.9,2.1-7.9,0-.2.1-.4.3-.5.1,0,.3-.1.4-.2.2-.1.4,0,.4.2v.2c-.3,2.5.2,4.8,1.6,6.9.3.4.6.8,1.1,1,2.1,1.2,3.2,3.1,3.4,5.7,0,.7.4,1,1.1.8,1.6-.5,2.2-1.7,1.8-3.7-.1-.4.2-.8.6-.9h.2l1.8.1c.6,0,1.1-.1,1.6-.3,2.5-1.3,5.1-1.9,7.9-1.8.5,0,.9.2,1.2.5,1.8,1.7,3.9,2.8,6.2,3.3.5.1,1-.2,1.2-.7.6-2.2,2.1-3.3,4.4-3,.4,0,.8.2,1.1.5,1.3,1.2,2.7,2.1,4.3,2.6.2.1.5,0,.6-.3.1-.2,0-.4-.1-.5l-2.6-2.5c-.5-.5-.4-.8.2-1.1,3.3-1.3,5-.6,5.3,2.2.1.9.5,1,1.1.3,2.2-2.4,4.6-2.6,7.2-.6,1,.8,2,1.4,2.8,1.8.5.2,1.1.1,1.6-.2,3-2.6,5.7-2.3,8,.9.3.4.7.6,1.2.6l6.8.1c.4,0,.7-.2.9-.6l.3-.7c.2-.5.6-.7,1.1-.7l19.2.6c.6,0,1-.2,1.4-.6l3.8-4.1c.3-.3.7-.3,1-.1.2.1.3.4.2.6l-.1,2.5c0,.4.3.8.7.8l1.3.1c.8.1,1.1-.3.8-1l-.5-1.7c-.1-.5.1-.9.6-1.1,1.3-.4,2.3-1.2,3-2.5.3-.5.7-.8,1.2-.9,2.7-.5,4.3.6,4.9,3.1.1.6-.3,1.3-.9,1.4-.3.1-.6,0-.8-.1l-3.1-1.7c-.2-.1-.5-.1-.6.2-.1.2-.1.4.1.6,1.2,1.3,2.6,2.1,4.4,2.4,1.6.2,2.3-.5,2.3-2.2,0-.2.1-.4.2-.5l1-.8c.4-.3.4-.6,0-.9-.9-.8-1.3-1.9-1.1-3.3.1-.5.3-.7.8-.8,3.5-.5,7,0,10.4,1.6.5.2.5.5.1.8-2.1,1.3-2.5,2.5-1.8,3.6Z"/>
  <path class="cls-12" d="m712.8,805.6c-5.6,7.5-12,14.7-19.2,21.5-.7.7-1,.5-1-.4s.3-1.8.8-2.6c.2-.4.3-.8.1-1.2-.9-2.1-1.9-2.3-2.9-.6.3-2.1-.2-3.4-1.5-3.8-1.1-.4-2.2.2-2.6,1.3-.1.2-.1.5-.1.7.1,2.4,1.5,3.3,4.1,2.7.8,1.5,1,2.9.7,4.3-.1.5-.4.8-.9.9-1.1.2-1.7.8-1.8,1.9,0,.5-.3.9-.6,1.2-4.4,4-5.3,8.9-12.4,9.2-.4,0-.8.1-1.1.4l-6.6,4.6c-.4.2-.8.4-1.2.4-2,0-4.3.8-6.8,2.6-2,1.4-6.1,3.1-12.4,5.3-3.9,1.4-9,5.6-12.9,5.7-10.9.3-22.1-2.8-33.6-9.4,17.9-4.9,35.1-13,51.3-22.1-.3,1.6-1.3,3.2-3,4.8-.2.2-.2.5,0,.7.1.1.3.2.5.1,5.3-1.3,4.2-7.1,9-7.4.5,0,.8.3.9.8v.3l-.5,1.7c-.1.3.1.7.4.8.3.1.6,0,.7-.3.7-1.2,1.2-2.5,1.4-3.9,0-.3.2-.5.4-.7l8.6-8c.4-.4,1-.3,1.3,0,.2.2.3.4.3.6v1.2c0,.7-.3,1.3-1,1.5-3.1,1.2-5.6,3.3-7.4,6.1-.3.4-.2,1,.3,1.3l.1.1,1.7.8c.3.2.8,0,.9-.3.1-.3.1-.7-.2-.9l-.5-.5c-.5-.4-.5-.8.1-1.2l7.5-4.9c.4-.3.6-.7.5-1.2-.3-2.1-.1-4.1.7-6.1.2-.5.7-.7,1.2-.5.3.1.5.3.6.6l.2.6c.1.3.5.5.8.4.2-.1.4-.2.4-.4.5-1.4,1.4-2.1,2.9-2,.5,0,.9.3,1.2.8.7,1.4,1.8,2,3.4,1.9,1.6-.1,2.4-1.3,2.3-2.8,0-.5-.3-.7-.8-.6l-1.3.2c-.4.1-.7-.2-.8-.5,0-.2,0-.4.1-.5l1.2-1.8c.1-.2.1-.3-.1-.4l-.4-.2c-.2-.1-.4-.1-.5,0-.8.7-1.7.9-2.6.8-.6-.1-.8-.4-.4-1,2-2.7,4.7-4.5,8.1-5.3.6-.1,1.2.2,1.3.8h0l.3,1.6c0,.2.3.4.5.3.1,0,.2-.1.3-.2,1-1.7,2.5-2.2,4.4-1.7.6.2,1,.5,1.2,1l.7,1.5c.3.5.7.6,1.2.3.2-.1.3-.3.4-.6.3-1.3-1.1-3.9-.6-6.2.2-.7.6-.9,1.2-.4l2.3,1.8c.4.3,1,.2,1.3-.2,0,0,0-.1.1-.1l.9-1.6c.4-.7,1.4-1,2.1-.5.1,0,.1.1.2.1l2.1,1.7c.3.3.8.2,1-.1.1-.1.2-.3.2-.5.1-2.7,1.5-3.7,4.4-3,.8.2,1.2,1,1,1.8-.1.4-.3.7-.6.9-3.1,2-4.2,3.9-3.5,6Zm-3.8-2c.3-.5-.1-1.4-1-1.9-.9-.6-1.9-.7-2.2-.2h0c-.3.5.1,1.4,1,1.9s1.8.7,2.2.2h0Zm-.6,4.2c.4-.7-.8-2.1-2.6-3.1h0c-1.8-1-3.6-1.3-4-.6s.8,2.1,2.6,3.1h0c1.8,1,3.6,1.3,4,.6Zm-15.6,2.1c-.1.5.3,1,.8,1h0l2.2.3c.7.1,1.2-.2,1.3-1,.2-1.6-.3-2.9-1.7-3.8-.7-.4-1.6-.2-2,.4-.1.2-.2.4-.2.6l-.4,2.5Z"/>
  <path class="cls-9" d="m379,802l5.7,9.2c1.9,15.8-9.1,28.7-25,24-13.2-3.9-13-16.4-8.8-27.5,6.5-9.7,15.9-11.6,28.1-5.7Z"/>
  <path class="cls-12" d="m336.5,809.8c-2.8,1.2-5.3,1.2-7.3.1l-3.4-7.5c-.3-.6-.1-1,.5-1.1l2.9-.8c.5-.1,1.1.2,1.2.7v.3c-.1,4.9,3.3,5.5,6.1,8.3Z"/>
  <ellipse class="cls-14" cx="707.33" cy="802.53" rx="1" ry="1.9" transform="translate(-353.05 943.87) rotate(-56.2)"/>
  <ellipse class="cls-14" cx="705.1" cy="805.97" rx="1.4" ry="3.8" transform="translate(-342.45 1028.22) rotate(-60.8)"/>
  <path class="cls-14" d="m692.8,809.9l.4-2.4c.1-.8.9-1.4,1.6-1.2.2,0,.4.1.6.2,1.4.9,2,2.2,1.7,3.8-.1.7-.5,1.1-1.3,1l-2.2-.3c-.5-.1-.9-.6-.8-1.1h0Z"/>
  <path class="cls-10" d="m690.5,822.3l-.1.9c-2.7.5-4-.4-4.1-2.7,0-1.1.8-2.1,2-2.1.2,0,.5,0,.7.1,1.3.5,1.8,1.7,1.5,3.8Z"/>
  <circle class="cls-8" cx="417.2" cy="835.8" r="6.8"/>
  <path class="cls-12" d="m535.6,849.8c-10.8,8.8-22.2,16.6-34.3,23.3-7.3,4-14.6,7-22.2,9-11.3,3-22.8,4.9-34.5,5.6l-7.5-.6c-.7,0-1.2-.6-1.1-1.3,0-.5.4-.9.8-1.1,21.1-6.6,40.7-16.6,58.9-30-.6,2-1.9,3.7-3.9,5.2-.3.2-.3.6-.1.9.1.1.2.2.4.2l3.2.6c.5.1.9.4,1,.9l.4,1.8c.2.9.4,1,.6,0,1.5-6.1,8.5-4.3,13.1-4.7,5.1-.5,10.1-5,14.3-7.8,2.7-1.7,6.4-2.4,10.9-2Z"/>
</svg>